<?xml version="1.0" encoding="UTF-8"?>
<svg version="1.1" xmlns="http://www.w3.org/2000/svg" width="32" height="32">
<path d="M0 0 C4.8846525 2.26787438 7.73212562 5.1153475 10 10 C10.75381535 15.5997712 10.77303575 20.33499991 8.375 25.5 C3.80134327 30.3143755 0.6912538 32.25156236 -6 32.5 C-12.6912538 32.25156236 -15.80134327 30.3143755 -20.375 25.5 C-22.77303575 20.33499991 -22.75381535 15.5997712 -22 10 C-17.52212837 0.3553534 -9.85292056 -1.32635469 0 0 Z " fill="#C9C9C9" transform="translate(22,0)"/>
<path d="M0 0 C2.65499376 2.65499376 2.32897553 4.04963297 2.375 7.75 C2.27436443 13.00820862 1.7362681 16.06708621 -2 20 C-6.73322266 24.49656153 -11.07351751 24.44141696 -17.29296875 24.43359375 C-20 24 -20 24 -21.8515625 22.671875 C-23.57323163 20.16549954 -23.19688785 17.95331778 -23 15 C-18.545 15.99 -18.545 15.99 -14 17 C-14.825 16.443125 -15.65 15.88625 -16.5 15.3125 C-19 13 -19 13 -19.4375 10.625 C-18.93423874 7.60543246 -18.06648171 4.8661696 -17 2 C-11.85379262 0.81241368 -7.15388392 1.02347463 -2 2 C-1.67 2.33 -1.34 2.66 -1 3 C-0.67 2.01 -0.34 1.02 0 0 Z " fill="#636363" transform="translate(30,8)"/>
<path d="M0 0 C2.65499376 2.65499376 2.32897553 4.04963297 2.375 7.75 C2.29650563 13.19881777 1.67762018 15.99788392 -2 20 C-2.66 20.33 -3.32 20.66 -4 21 C-4.6875 18.6875 -4.6875 18.6875 -5 16 C-3.6875 14.4375 -3.6875 14.4375 -2 13 C-0.82425289 10.90010348 -0.82425289 10.90010348 0 9 C-0.99 9.495 -0.99 9.495 -2 10 C-4.12235807 10.1229938 -6.24911463 10.17555682 -8.375 10.1875 C-9.51710938 10.20167969 -10.65921875 10.21585938 -11.8359375 10.23046875 C-14.83936816 10.01170034 -16.47925934 9.57080637 -19 8 C-18.34 6.02 -17.68 4.04 -17 2 C-11.85379262 0.81241368 -7.15388392 1.02347463 -2 2 C-1.67 2.33 -1.34 2.66 -1 3 C-0.67 2.01 -0.34 1.02 0 0 Z " fill="#9B9B9B" transform="translate(30,8)"/>
<path d="M0 0 C0 0.66 0 1.32 0 2 C-2.31 2.66 -4.62 3.32 -7 4 C-3.7 4 -0.4 4 3 4 C2.67 4.66 2.34 5.32 2 6 C0.88625 5.979375 -0.2275 5.95875 -1.375 5.9375 C-4.83215921 5.73619282 -4.83215921 5.73619282 -7 7 C-7 8.65 -7 10.3 -7 12 C-7.66 12 -8.32 12 -9 12 C-7.76075855 16.95696581 -6.21422242 19.11658466 -2 22 C-8.5404266 21.48702536 -11.46925843 19.53074157 -16 15 C-16.46859716 10.03287015 -16.16124524 6.92430444 -13 3 C-8.75003492 -0.52139964 -5.28127753 -0.26853954 0 0 Z " fill="#F6F6F6" transform="translate(20,4)"/>
<path d="M0 0 C4.16507474 1.5638978 6.17431889 4.01365042 8 8 C7.48953125 7.566875 6.9790625 7.13375 6.453125 6.6875 C-0.00729733 1.7390914 -5.00757525 1.26972769 -13 2 C-13.29777344 2.6290625 -13.59554688 3.258125 -13.90234375 3.90625 C-15 6 -15 6 -16.5625 7.5 C-19.72820946 10.80334901 -19.14417133 15.50119566 -19.1015625 19.8046875 C-18.98704666 22.27999137 -18.61914778 24.60080237 -18 27 C-21.68462985 23.47557144 -22.19179334 21.35779752 -22.3125 16.25 C-22.25568726 10.97272796 -21.75321305 7.95075058 -18 4 C-12.73701795 -0.99983295 -6.88407128 -0.94302346 0 0 Z " fill="#AAAAAA" transform="translate(22,0)"/>
<path d="M0 0 C0 0.66 0 1.32 0 2 C-1.258125 2.20625 -2.51625 2.4125 -3.8125 2.625 C-6.02814852 3.09454202 -6.02814852 3.09454202 -8 4 C-9.85916824 6.96707046 -9.85916824 6.96707046 -11 10 C-11.99 10.33 -12.98 10.66 -14 11 C-14 12.98 -14 14.96 -14 17 C-16 15 -16 15 -16.3125 11.6875 C-15.97910496 7.75343856 -15.45332255 6.04550386 -13 3 C-8.75003492 -0.52139964 -5.28127753 -0.26853954 0 0 Z " fill="#E3E3E3" transform="translate(20,4)"/>
<path d="M0 0 C-0.99 0.495 -0.99 0.495 -2 1 C-2.65213292 3.02463255 -2.65213292 3.02463255 -3 5 C0.27773504 4.24849977 0.27773504 4.24849977 2 1 C3.5625 3.375 3.5625 3.375 5 6 C4.67 6.66 4.34 7.32 4 8 C-4.57142857 8.28571429 -4.57142857 8.28571429 -8 6 C-7.39816251 3.97954558 -6.72693904 1.97888961 -6 0 C-3.50907189 -1.24546405 -2.58919267 -0.7767578 0 0 Z " fill="#B2B2B2" transform="translate(19,10)"/>
<path d="M0 0 C6.27 0 12.54 0 19 0 C18.34 1.32 17.68 2.64 17 4 C17 3.34 17 2.68 17 2 C15.68 2 14.36 2 13 2 C12.67 2.99 12.34 3.98 12 5 C6.25 5.125 6.25 5.125 4 4 C3.67 3.67 3.34 3.34 3 3 C2.67 3.99 2.34 4.98 2 6 C1.34 5.34 0.68 4.68 0 4 C0 2.68 0 1.36 0 0 Z " fill="#707070" transform="translate(11,17)"/>
<path d="M0 0 C4.71621265 1.01114418 8.03509692 4.32780221 11.49609375 7.53515625 C11.16609375 8.85515625 10.83609375 10.17515625 10.49609375 11.53515625 C8.18609375 10.87515625 5.87609375 10.21515625 3.49609375 9.53515625 C4.48609375 8.54515625 5.47609375 7.55515625 6.49609375 6.53515625 C3.16757607 3.5217167 0.67726562 3.08848081 -3.75390625 2.84765625 C-4.8315625 2.78191406 -5.90921875 2.71617188 -7.01953125 2.6484375 C-7.839375 2.61105469 -8.65921875 2.57367188 -9.50390625 2.53515625 C-5.99313184 0.19463998 -4.11864281 -0.04734072 0 0 Z " fill="#C2C2C2" transform="translate(18.50390625,0.46484375)"/>
<path d="M0 0 C8.77578475 -0.76681614 8.77578475 -0.76681614 11.77734375 1.11328125 C13.125 2.5 13.125 2.5 15 5 C11.71480525 6.09506492 9.26336585 6.09960608 5.8125 6.0625 C4.18248047 6.04896484 4.18248047 6.04896484 2.51953125 6.03515625 C1.68808594 6.02355469 0.85664063 6.01195312 0 6 C0.33 5.34 0.66 4.68 1 4 C3.64860427 3.40644386 6.29197322 3.25790731 9 3 C9 2.34 9 1.68 9 1 C5.7 1.33 2.4 1.66 -1 2 C-0.67 1.34 -0.34 0.68 0 0 Z " fill="#DADADA" transform="translate(11,3)"/>
<path d="M0 0 C0 3 0 3 -0.5 5.625 C-1.36322489 11.45176799 -1.48083336 17.26177072 0 23 C-3.68462985 19.47557144 -4.19179334 17.35779752 -4.3125 12.25 C-4.29281604 6.79098056 -3.60525831 4.0559156 0 0 Z " fill="#9B9B9B" transform="translate(4,4)"/>
<path d="M0 0 C3.63 0 7.26 0 11 0 C11 1.65 11 3.3 11 5 C8.5625 4.625 8.5625 4.625 6 4 C5.67 3.34 5.34 2.68 5 2 C4.01 3.485 4.01 3.485 3 5 C2.01 5 1.02 5 0 5 C0 3.35 0 1.7 0 0 Z " fill="#3E3E3E" transform="translate(16,10)"/>
<path d="M0 0 C0.66 0 1.32 0 2 0 C2 0.66 2 1.32 2 2 C4.64 2 7.28 2 10 2 C10.33 1.34 10.66 0.68 11 0 C12.32 0 13.64 0 15 0 C13.25 3.875 13.25 3.875 11 5 C9.28766312 4.9129796 7.57824594 4.75902838 5.875 4.5625 C4.96492188 4.46066406 4.05484375 4.35882812 3.1171875 4.25390625 C2.41851562 4.17011719 1.71984375 4.08632813 1 4 C0.67 2.68 0.34 1.36 0 0 Z " fill="#333333" transform="translate(13,19)"/>
<path d="M0 0 C0 0.66 0 1.32 0 2 C-0.60328125 2.17015625 -1.2065625 2.3403125 -1.828125 2.515625 C-6.51063372 3.93548248 -9.85311149 5.03218406 -13 9 C-10.54689839 0.50849441 -8.50742064 -0.41839774 0 0 Z " fill="#EFEFEF" transform="translate(20,4)"/>
<path d="M0 0 C5.03985731 0.44469329 7.37634988 2.71343362 11 6 C10.67 6.66 10.34 7.32 10 8 C8.33055479 6.85821872 6.6645052 5.71147095 5 4.5625 C4.071875 3.92441406 3.14375 3.28632812 2.1875 2.62890625 C1.465625 2.09136719 0.74375 1.55382812 0 1 C0 0.67 0 0.34 0 0 Z " fill="#9C9C9C" transform="translate(19,0)"/>
<path d="M0 0 C2.31 0.33 4.62 0.66 7 1 C6.360625 1.268125 5.72125 1.53625 5.0625 1.8125 C2.66868314 2.88667752 2.66868314 2.88667752 2 6 C1.34 5.34 0.68 4.68 0 4 C0 2.68 0 1.36 0 0 Z " fill="#585757" transform="translate(11,17)"/>
<path d="M0 0 C0.99 0.66 1.98 1.32 3 2 C2.67 3.32 2.34 4.64 2 6 C-0.31 5.34 -2.62 4.68 -5 4 C-2 2 -2 2 0 2 C0 1.34 0 0.68 0 0 Z " fill="#B4B4B4" transform="translate(27,6)"/>
<path d="M0 0 C0.99 0.33 1.98 0.66 3 1 C2.67 2.65 2.34 4.3 2 6 C1.01 5.34 0.02 4.68 -1 4 C-0.67 2.68 -0.34 1.36 0 0 Z " fill="#E9E9E9" transform="translate(5,24)"/>
</svg>
